millimetreA Bold 01.ufo
<glyph name="ampersand" format="1">
  <advance width="800"/>
  <unicode hex="0026"/>
  <outline>
    <contour>
      <point x="600" y="350" type="line"/>
      <point x="750" y="350" type="line"/>
      <point x="750" y="400" type="line"/>
      <point x="600" y="400" type="line"/>
    </contour>
    <contour>
      <point x="600" y="350" type="line"/>
      <point x="600" y="210"/>
      <point x="530" y="140"/>
      <point x="350" y="140" type="curve"/>
      <point x="245" y="140"/>
      <point x="190" y="175"/>
      <point x="190" y="240" type="curve" smooth="yes"/>
      <point x="190" y="305"/>
      <point x="240" y="340"/>
      <point x="380" y="340" type="curve"/>
      <point x="380" y="340"/>
      <point x="310" y="420"/>
      <point x="310" y="420" type="curve"/>
      <point x="150" y="420"/>
      <point x="40" y="370"/>
      <point x="40" y="240" type="curve"/>
      <point x="40" y="70"/>
      <point x="160" y="-10"/>
      <point x="350" y="-10" type="curve"/>
      <point x="630" y="-10"/>
      <point x="750" y="130"/>
      <point x="750" y="350" type="curve"/>
    </contour>
    <contour>
      <point x="270" y="345" type="curve" smooth="yes"/>
      <point x="580" y="0" type="line"/>
      <point x="750" y="0" type="line"/>
      <point x="750" y="40" type="line"/>
      <point x="400" y="420" type="line" smooth="yes"/>
      <point x="375" y="445"/>
      <point x="345.0" y="480.0"/>
      <point x="345" y="510" type="curve" smooth="yes"/>
      <point x="345" y="550"/>
      <point x="370" y="560"/>
      <point x="400" y="560" type="curve"/>
      <point x="430" y="560"/>
      <point x="450" y="550"/>
      <point x="450" y="510" type="curve"/>
      <point x="450" y="470"/>
      <point x="410" y="430"/>
      <point x="350" y="420" type="curve"/>
      <point x="410" y="350" type="line"/>
      <point x="515" y="365"/>
      <point x="600" y="440"/>
      <point x="600" y="535" type="curve"/>
      <point x="600" y="655"/>
      <point x="535" y="710"/>
      <point x="400" y="710" type="curve"/>
      <point x="275" y="710"/>
      <point x="195" y="640"/>
      <point x="195" y="535" type="curve"/>
      <point x="195" y="465"/>
      <point x="215" y="405"/>
    </contour>
  </outline>
</glyph>
<glyph name="asterisk" format="1">
  <advance width="200"/>
  <unicode hex="002A"/>
  <outline>
    <contour>
      <point x="105" y="620" type="line"/>
      <point x="135" y="665" type="line"/>
      <point x="135" y="700" type="line"/>
      <point x="65" y="700" type="line"/>
      <point x="65" y="665" type="line" smooth="yes"/>
      <point x="95" y="620" type="line"/>
    </contour>
    <contour>
      <point x="80" y="590" type="line"/>
      <point x="30" y="570" type="line"/>
      <point x="10" y="545" type="line"/>
      <point x="65" y="500" type="line"/>
      <point x="85" y="525" type="line" smooth="yes"/>
      <point x="90" y="580" type="line"/>
    </contour>
    <contour>
      <point x="85" y="610" type="line"/>
      <point x="50" y="655" type="line"/>
      <point x="20" y="665" type="line"/>
      <point x="-5" y="600" type="line"/>
      <point x="30" y="590" type="line" smooth="yes"/>
      <point x="80" y="600" type="line"/>
    </contour>
    <contour>
      <point x="120" y="590" type="line"/>
      <point x="110" y="580" type="line"/>
      <point x="115" y="525" type="line" smooth="yes"/>
      <point x="135" y="500" type="line"/>
      <point x="190" y="545" type="line"/>
      <point x="170" y="570" type="line"/>
    </contour>
    <contour>
      <point x="115" y="610" type="line"/>
      <point x="120" y="600" type="line"/>
      <point x="170" y="590" type="line" smooth="yes"/>
      <point x="205" y="600" type="line"/>
      <point x="180" y="665" type="line"/>
      <point x="150" y="655" type="line"/>
    </contour>
    <contour>
      <point x="95" y="620" type="line"/>
      <point x="85" y="610" type="line"/>
      <point x="80" y="600" type="line"/>
      <point x="80" y="590" type="line"/>
      <point x="90" y="580" type="line"/>
      <point x="110" y="580" type="line"/>
      <point x="120" y="590" type="line"/>
      <point x="120" y="600" type="line"/>
      <point x="115" y="610" type="line"/>
      <point x="105" y="620" type="line"/>
    </contour>
  </outline>
</glyph>
<glyph name="two" format="1">
  <advance width="600"/>
  <unicode hex="0032"/>
  <outline>
    <contour>
      <point x="200" y="165" type="line"/>
      <point x="200" y="330"/>
      <point x="550" y="230"/>
      <point x="550" y="490" type="curve" smooth="yes"/>
      <point x="550" y="630"/>
      <point x="480" y="700"/>
      <point x="300" y="700" type="curve"/>
      <point x="270" y="700" type="line" smooth="yes"/>
      <point x="130" y="700"/>
      <point x="50" y="630"/>
      <point x="50" y="480" type="curve"/>
      <point x="50" y="450" type="line"/>
      <point x="200" y="450" type="line"/>
      <point x="200" y="470" type="line" smooth="yes"/>
      <point x="200" y="540"/>
      <point x="225" y="550"/>
      <point x="300" y="550" type="curve"/>
      <point x="385" y="550"/>
      <point x="400" y="525"/>
      <point x="400" y="500" type="curve" smooth="yes"/>
      <point x="400" y="380"/>
      <point x="50" y="445"/>
      <point x="50" y="160" type="curve" smooth="yes"/>
      <point x="50" y="0" type="line"/>
      <point x="550" y="0" type="line"/>
      <point x="550" y="230" type="line"/>
      <point x="400" y="230" type="line"/>
      <point x="400" y="150" type="line" smooth="yes"/>
      <point x="200" y="150" type="line"/>
    </contour>
  </outline>
</glyph>
<glyph name="three" format="1">
  <advance width="600"/>
  <unicode hex="0033"/>
  <outline>
    <contour>
      <point x="550" y="545" type="curve"/>
      <point x="550" y="555" type="line"/>
      <point x="550" y="655"/>
      <point x="480" y="710"/>
      <point x="300" y="710" type="curve" smooth="yes"/>
      <point x="110" y="710"/>
      <point x="50" y="660"/>
      <point x="50" y="520" type="curve"/>
      <point x="50" y="500" type="line"/>
      <point x="200" y="500" type="line"/>
      <point x="200" y="515" type="line"/>
      <point x="200" y="555"/>
      <point x="220" y="560"/>
      <point x="300" y="560" type="curve" smooth="yes"/>
      <point x="380" y="560"/>
      <point x="400" y="555"/>
      <point x="400" y="530" type="curve"/>
      <point x="400" y="505"/>
      <point x="380" y="500"/>
      <point x="300" y="500" type="curve"/>
      <point x="300" y="410" type="line"/>
      <point x="480" y="410"/>
      <point x="550" y="440"/>
    </contour>
    <contour>
      <point x="270" y="0" type="curve" smooth="yes"/>
      <point x="300" y="0" type="line"/>
      <point x="300" y="150" type="line"/>
      <point x="230" y="150"/>
      <point x="200" y="170"/>
      <point x="200" y="240" type="curve" smooth="yes"/>
      <point x="200" y="300" type="line"/>
      <point x="50" y="300" type="line"/>
      <point x="50" y="220" type="line"/>
      <point x="50" y="70"/>
      <point x="130" y="0"/>
    </contour>
    <contour>
      <point x="550" y="245" type="curve"/>
      <point x="550" y="310" type="line"/>
      <point x="550" y="410"/>
      <point x="480" y="450"/>
      <point x="300" y="450" type="curve"/>
      <point x="300" y="500" type="line"/>
      <point x="250" y="500" type="line"/>
      <point x="250" y="360" type="line"/>
      <point x="300" y="360" type="line"/>
      <point x="380" y="360"/>
      <point x="400" y="350"/>
      <point x="400" y="310" type="curve"/>
      <point x="400" y="240" type="line"/>
      <point x="400" y="170"/>
      <point x="380" y="150"/>
      <point x="300" y="150" type="curve"/>
      <point x="300" y="0" type="line"/>
      <point x="330" y="0" type="line" smooth="yes"/>
      <point x="470" y="0"/>
      <point x="550" y="70"/>
    </contour>
  </outline>
</glyph>
<glyph name="four" format="1">
  <advance width="600"/>
  <unicode hex="0034"/>
  <outline>
    <contour>
      <point x="50" y="200" type="line"/>
      <point x="550" y="200" type="line"/>
      <point x="550" y="300" type="line"/>
      <point x="90" y="300" type="line"/>
      <point x="50" y="270" type="line"/>
    </contour>
    <contour>
      <point x="120" y="220" type="line"/>
      <point x="440" y="700" type="line" smooth="yes"/>
      <point x="330" y="700" type="line"/>
      <point x="50" y="270" type="line"/>
    </contour>
    <contour>
      <point x="350" y="0" type="line"/>
      <point x="350" y="250" type="line"/>
      <point x="250" y="250" type="line"/>
      <point x="250" y="0" type="line"/>
    </contour>
  </outline>
</glyph>
<glyph name="five" format="1">
  <advance width="600"/>
  <unicode hex="0035"/>
  <outline>
    <contour>
      <point x="550" y="290" type="line"/>
      <point x="550" y="310" type="line"/>
      <point x="550" y="440"/>
      <point x="480" y="510"/>
      <point x="300" y="510" type="curve" smooth="yes"/>
      <point x="230" y="510"/>
      <point x="180" y="500"/>
      <point x="150" y="470" type="curve"/>
      <point x="150" y="600" type="line"/>
      <point x="550" y="600" type="line"/>
      <point x="550" y="700" type="line"/>
      <point x="50" y="700" type="line"/>
      <point x="50" y="350" type="line"/>
      <point x="140" y="350" type="line"/>
      <point x="150" y="400"/>
      <point x="170" y="410"/>
      <point x="300" y="410" type="curve" smooth="yes"/>
      <point x="430" y="410"/>
      <point x="450" y="390"/>
      <point x="450" y="310" type="curve" smooth="yes"/>
      <point x="450" y="290" type="line"/>
    </contour>
    <contour>
      <point x="270" y="0" type="curve" smooth="yes"/>
      <point x="300" y="0" type="line"/>
      <point x="300" y="100" type="line"/>
      <point x="180" y="100"/>
      <point x="150" y="120"/>
      <point x="150" y="240" type="curve" smooth="yes"/>
      <point x="150" y="250" type="line"/>
      <point x="50" y="250" type="line"/>
      <point x="50" y="220" type="line"/>
      <point x="50" y="70"/>
      <point x="130" y="0"/>
    </contour>
    <contour>
      <point x="330" y="0" type="line" smooth="yes"/>
      <point x="470" y="0"/>
      <point x="550" y="70"/>
      <point x="550" y="220" type="curve"/>
      <point x="550" y="290" type="line"/>
      <point x="450" y="290" type="line"/>
      <point x="450" y="240" type="line" smooth="yes"/>
      <point x="450" y="120"/>
      <point x="430" y="100"/>
      <point x="300" y="100" type="curve"/>
      <point x="300" y="0" type="line"/>
    </contour>
  </outline>
</glyph>
<glyph name="six" format="1">
  <advance width="600"/>
  <unicode hex="0036"/>
  <outline>
    <contour>
      <point x="270" y="0" type="curve" smooth="yes"/>
      <point x="300" y="0" type="line"/>
      <point x="300" y="150" type="line"/>
      <point x="225" y="150"/>
      <point x="200" y="150"/>
      <point x="200" y="175" type="curve"/>
      <point x="200" y="450" type="line"/>
      <point x="50" y="450" type="line"/>
      <point x="50" y="220" type="line"/>
      <point x="50" y="45"/>
      <point x="130" y="0"/>
    </contour>
    <contour>
      <point x="555" y="295"/>
      <point x="490" y="360"/>
      <point x="360" y="360" type="curve"/>
      <point x="265" y="360"/>
      <point x="210" y="335"/>
      <point x="200" y="280" type="curve"/>
      <point x="200" y="175" type="line"/>
      <point x="200" y="205"/>
      <point x="225" y="210"/>
      <point x="300" y="210" type="curve" smooth="yes"/>
      <point x="375" y="210"/>
      <point x="405" y="205"/>
      <point x="405" y="180" type="curve"/>
      <point x="405" y="155"/>
      <point x="375" y="150"/>
      <point x="300" y="150" type="curve"/>
      <point x="300" y="0" type="line"/>
      <point x="330" y="0" type="line" smooth="yes"/>
      <point x="470" y="0"/>
      <point x="555" y="75"/>
      <point x="555" y="180" type="curve"/>
    </contour>
    <contour>
      <point x="330" y="700" type="curve" smooth="yes"/>
      <point x="300" y="700" type="line"/>
      <point x="300" y="550" type="line"/>
      <point x="370" y="550"/>
      <point x="400" y="530"/>
      <point x="400" y="460" type="curve" smooth="yes"/>
      <point x="400" y="400" type="line"/>
      <point x="550" y="400" type="line"/>
      <point x="550" y="480" type="line"/>
      <point x="550" y="630"/>
      <point x="470" y="700"/>
    </contour>
    <contour>
      <point x="50" y="455" type="curve"/>
      <point x="50" y="390" type="line"/>
      <point x="200" y="390" type="line"/>
      <point x="200" y="460" type="line"/>
      <point x="200" y="530"/>
      <point x="220" y="550"/>
      <point x="300" y="550" type="curve"/>
      <point x="300" y="700" type="line"/>
      <point x="270" y="700" type="line" smooth="yes"/>
      <point x="130" y="700"/>
      <point x="50" y="630"/>
    </contour>
  </outline>
</glyph>
<glyph name="seven" format="1">
  <advance width="600"/>
  <unicode hex="0037"/>
  <outline>
    <contour>
      <point x="50" y="600" type="line"/>
      <point x="515" y="600" type="line"/>
      <point x="555" y="630" type="line"/>
      <point x="555" y="700" type="line"/>
      <point x="50" y="700" type="line"/>
    </contour>
    <contour>
      <point x="100" y="200" type="line"/>
      <point x="500" y="200" type="line"/>
      <point x="500" y="300" type="line"/>
      <point x="100" y="300" type="line"/>
    </contour>
    <contour>
      <point x="350" y="300" type="line"/>
      <point x="360" y="425"/>
      <point x="400" y="495"/>
      <point x="555" y="630" type="curve"/>
      <point x="500" y="685" type="line"/>
      <point x="320" y="550"/>
      <point x="265" y="465"/>
      <point x="250" y="300" type="curve"/>
    </contour>
    <contour>
      <point x="350" y="0" type="line"/>
      <point x="350" y="250" type="line"/>
      <point x="250" y="250" type="line"/>
      <point x="250" y="0" type="line"/>
    </contour>
  </outline>
</glyph>
<glyph name="at" format="1">
  <advance width="700"/>
  <unicode hex="0040"/>
  <outline>
    <contour>
      <point x="500" y="465" type="line"/>
      <point x="490" y="485"/>
      <point x="450" y="505"/>
      <point x="395" y="505" type="curve" smooth="yes"/>
      <point x="305" y="505"/>
      <point x="255" y="460"/>
      <point x="255" y="390" type="curve"/>
      <point x="255" y="310" type="line"/>
      <point x="255" y="240"/>
      <point x="305" y="195"/>
      <point x="395" y="195" type="curve" smooth="yes"/>
      <point x="450" y="195"/>
      <point x="490" y="220"/>
      <point x="500" y="245" type="curve"/>
      <point x="510" y="200" type="line"/>
      <point x="650" y="200" type="line"/>
      <point x="650" y="500" type="line"/>
      <point x="650" y="640"/>
      <point x="580" y="700"/>
      <point x="450" y="700" type="curve"/>
      <point x="350" y="700" type="line"/>
      <point x="160" y="700"/>
      <point x="50" y="600"/>
      <point x="50" y="450" type="curve"/>
      <point x="50" y="250" type="line"/>
      <point x="50" y="100"/>
      <point x="160" y="0"/>
      <point x="350" y="0" type="curve"/>
      <point x="650" y="0" type="line"/>
      <point x="650" y="145" type="line"/>
      <point x="345" y="145" type="line"/>
      <point x="255" y="145"/>
      <point x="195" y="195"/>
      <point x="195" y="295" type="curve" smooth="yes"/>
      <point x="195" y="405" type="line" smooth="yes"/>
      <point x="195" y="505"/>
      <point x="255" y="555"/>
      <point x="345" y="555" type="curve"/>
      <point x="450" y="555" type="line"/>
      <point x="480" y="555"/>
      <point x="500" y="540"/>
      <point x="500" y="505" type="curve"/>
    </contour>
    <contour>
      <point x="500" y="350" type="curve"/>
      <point x="500" y="320"/>
      <point x="485" y="305"/>
      <point x="450" y="305" type="curve" smooth="yes"/>
      <point x="415" y="305"/>
      <point x="400" y="320"/>
      <point x="400" y="350" type="curve"/>
      <point x="400" y="380"/>
      <point x="415" y="395"/>
      <point x="450" y="395" type="curve" smooth="yes"/>
      <point x="485" y="395"/>
      <point x="500" y="380"/>
    </contour>
  </outline>
</glyph>
<glyph name="A" format="1">
  <advance width="600"/>
  <unicode hex="0041"/>
  <outline>
    <contour>
      <point x="500" y="200" type="line"/>
      <point x="500" y="350" type="line"/>
      <point x="100" y="350" type="line"/>
      <point x="100" y="200" type="line"/>
    </contour>
    <contour>
      <point x="250" y="700" type="line"/>
      <point x="90" y="585"/>
      <point x="50" y="450"/>
      <point x="50" y="250" type="curve" smooth="yes"/>
      <point x="50" y="0" type="line"/>
      <point x="200" y="0" type="line"/>
      <point x="200" y="250" type="line" smooth="yes"/>
      <point x="200" y="460"/>
      <point x="240" y="525"/>
      <point x="390" y="625" type="curve"/>
    </contour>
    <contour>
      <point x="350" y="700" type="curve"/>
      <point x="250" y="700" type="line"/>
      <point x="210" y="625" type="line"/>
      <point x="360" y="525"/>
      <point x="400" y="460"/>
      <point x="400" y="250" type="curve" smooth="yes"/>
      <point x="400" y="0" type="line"/>
      <point x="550" y="0" type="line"/>
      <point x="550" y="250" type="line" smooth="yes"/>
      <point x="550" y="450"/>
      <point x="510" y="585"/>
    </contour>
    <contour>
      <point x="300.0" y="650.0" type="move" name="top"/>
    </contour>
  </outline>
</glyph>
<glyph name="M" format="1">
  <advance width="750"/>
  <unicode hex="004D"/>
  <outline>
    <contour>
      <point x="50" y="0" type="line"/>
      <point x="200" y="0" type="line"/>
      <point x="200" y="555" type="line"/>
      <point x="150" y="700" type="line"/>
      <point x="50" y="700" type="line"/>
    </contour>
    <contour>
      <point x="70" y="565" type="line"/>
      <point x="250" y="250" type="line" smooth="yes"/>
      <point x="295" y="170"/>
      <point x="300" y="140"/>
      <point x="300" y="50" type="curve" smooth="yes"/>
      <point x="300" y="0" type="line"/>
      <point x="450" y="0" type="line"/>
      <point x="450" y="65" type="line" smooth="yes"/>
      <point x="450" y="155"/>
      <point x="400" y="290"/>
      <point x="310" y="435" type="curve" smooth="yes"/>
      <point x="150" y="700" type="line"/>
    </contour>
    <contour>
      <point x="700" y="0" type="line"/>
      <point x="700" y="700" type="line"/>
      <point x="600" y="700" type="line"/>
      <point x="550" y="555" type="line"/>
      <point x="550" y="0" type="line"/>
    </contour>
    <contour>
      <point x="680" y="565" type="line"/>
      <point x="600" y="700" type="line"/>
      <point x="440" y="435" type="line" smooth="yes"/>
      <point x="350" y="290"/>
      <point x="300" y="155"/>
      <point x="300" y="65" type="curve" smooth="yes"/>
      <point x="300" y="0" type="line"/>
      <point x="450" y="0" type="line"/>
      <point x="450" y="50" type="line" smooth="yes"/>
      <point x="450" y="140"/>
      <point x="455" y="170"/>
      <point x="500" y="250" type="curve" smooth="yes"/>
    </contour>
  </outline>
</glyph>
<glyph name="N" format="1">
  <advance width="600"/>
  <unicode hex="004E"/>
  <outline>
    <contour>
      <point x="50" y="0" type="line"/>
      <point x="200" y="0" type="line"/>
      <point x="200" y="610" type="line"/>
      <point x="150" y="700" type="line"/>
      <point x="50" y="700" type="line"/>
    </contour>
    <contour>
      <point x="400" y="105" type="line"/>
      <point x="450" y="0" type="line"/>
      <point x="550" y="0" type="line"/>
      <point x="550" y="700" type="line"/>
      <point x="400" y="700" type="line"/>
    </contour>
    <contour>
      <point x="450" y="0" type="line"/>
      <point x="525" y="155" type="line"/>
      <point x="150" y="700" type="line"/>
      <point x="75" y="545" type="line"/>
    </contour>
    <contour>
      <point x="300" y="650" type="move" name="top"/>
    </contour>
  </outline>
</glyph>
<glyph name="O" format="1">
  <advance width="600"/>
  <unicode hex="004F"/>
  <outline>
    <contour>
      <point x="270" y="0" type="curve" smooth="yes"/>
      <point x="300" y="0" type="line"/>
      <point x="300" y="150" type="line"/>
      <point x="220" y="150"/>
      <point x="200" y="170"/>
      <point x="200" y="240" type="curve" smooth="yes"/>
      <point x="200" y="350" type="line"/>
      <point x="50" y="350" type="line"/>
      <point x="50" y="245" type="line"/>
      <point x="50" y="70"/>
      <point x="130" y="0"/>
    </contour>
    <contour>
      <point x="270" y="700" type="line" smooth="yes"/>
      <point x="130" y="700"/>
      <point x="50" y="630"/>
      <point x="50" y="455" type="curve"/>
      <point x="50" y="350" type="line"/>
      <point x="200" y="350" type="line"/>
      <point x="200" y="460" type="line" smooth="yes"/>
      <point x="200" y="530"/>
      <point x="220" y="550"/>
      <point x="300" y="550" type="curve"/>
      <point x="300" y="700" type="line"/>
    </contour>
    <contour>
      <point x="330" y="0" type="line" smooth="yes"/>
      <point x="470" y="0"/>
      <point x="550" y="70"/>
      <point x="550" y="245" type="curve"/>
      <point x="550" y="350" type="line"/>
      <point x="400" y="350" type="line"/>
      <point x="400" y="240" type="line" smooth="yes"/>
      <point x="400" y="170"/>
      <point x="380" y="150"/>
      <point x="300" y="150" type="curve"/>
      <point x="300" y="0" type="line"/>
    </contour>
    <contour>
      <point x="330" y="700" type="curve" smooth="yes"/>
      <point x="300" y="700" type="line"/>
      <point x="300" y="550" type="line"/>
      <point x="380" y="550"/>
      <point x="400" y="530"/>
      <point x="400" y="460" type="curve" smooth="yes"/>
      <point x="400" y="350" type="line"/>
      <point x="550" y="350" type="line"/>
      <point x="550" y="455" type="line"/>
      <point x="550" y="630"/>
      <point x="470" y="700"/>
    </contour>
    <contour>
      <point x="300" y="650" type="move" name="top"/>
    </contour>
  </outline>
</glyph>
<glyph name="P" format="1">
  <advance width="600"/>
  <unicode hex="0050"/>
  <outline>
    <contour>
      <point x="200" y="700" type="line"/>
      <point x="50" y="700" type="line"/>
      <point x="50" y="0" type="line"/>
      <point x="200" y="0" type="line"/>
    </contour>
    <contour>
      <point x="330" y="200" type="line" smooth="yes"/>
      <point x="470" y="200"/>
      <point x="550" y="270"/>
      <point x="550" y="420" type="curve"/>
      <point x="550" y="450" type="line"/>
      <point x="400" y="450" type="line"/>
      <point x="400" y="440" type="line" smooth="yes"/>
      <point x="400" y="370"/>
      <point x="380" y="350"/>
      <point x="300" y="350" type="curve"/>
      <point x="110" y="350" type="line"/>
      <point x="110" y="200" type="line"/>
    </contour>
    <contour>
      <point x="330" y="700" type="curve" smooth="yes"/>
      <point x="110" y="700" type="line"/>
      <point x="110" y="550" type="line"/>
      <point x="300" y="550" type="line"/>
      <point x="380" y="550"/>
      <point x="400" y="530"/>
      <point x="400" y="460" type="curve" smooth="yes"/>
      <point x="400" y="450" type="line"/>
      <point x="550" y="450" type="line"/>
      <point x="550" y="480" type="line"/>
      <point x="550" y="630"/>
      <point x="470" y="700"/>
    </contour>
  </outline>
</glyph>
<glyph name="S" format="1">
  <advance width="600"/>
  <unicode hex="0053"/>
  <outline>
    <contour>
      <point x="405" y="200" type="curve"/>
      <point x="405" y="175"/>
      <point x="390" y="150"/>
      <point x="300" y="150" type="curve"/>
      <point x="225" y="150"/>
      <point x="200" y="160"/>
      <point x="200" y="230" type="curve" smooth="yes"/>
      <point x="200" y="250" type="line"/>
      <point x="50" y="250" type="line"/>
      <point x="50" y="220" type="line"/>
      <point x="50" y="70"/>
      <point x="130" y="0"/>
      <point x="270" y="0" type="curve" smooth="yes"/>
      <point x="300" y="0" type="line"/>
      <point x="485" y="0"/>
      <point x="555" y="70"/>
      <point x="555" y="210" type="curve"/>
      <point x="555" y="470"/>
      <point x="200" y="380"/>
      <point x="200" y="500" type="curve" smooth="yes"/>
      <point x="200" y="525"/>
      <point x="215" y="550"/>
      <point x="300" y="550" type="curve"/>
      <point x="375" y="550"/>
      <point x="400" y="540"/>
      <point x="400" y="470" type="curve" smooth="yes"/>
      <point x="400" y="450" type="line"/>
      <point x="550" y="450" type="line"/>
      <point x="550" y="480" type="line"/>
      <point x="550" y="630"/>
      <point x="470" y="700"/>
      <point x="330" y="700" type="curve" smooth="yes"/>
      <point x="300" y="700" type="line"/>
      <point x="120" y="700"/>
      <point x="50" y="630"/>
      <point x="50" y="490" type="curve" smooth="yes"/>
      <point x="50" y="230"/>
      <point x="405" y="320"/>
    </contour>
  </outline>
</glyph>
<glyph name="T" format="1">
  <advance width="600"/>
  <unicode hex="0054"/>
  <outline>
    <contour>
      <point x="225" y="0" type="line"/>
      <point x="375" y="0" type="line"/>
      <point x="375" y="700" type="line"/>
      <point x="225" y="700" type="line"/>
    </contour>
    <contour>
      <point x="25" y="550" type="line"/>
      <point x="575" y="550" type="line"/>
      <point x="575" y="700" type="line"/>
      <point x="25" y="700" type="line"/>
    </contour>
  </outline>
</glyph>
<glyph name="Y" format="1">
  <advance width="600"/>
  <unicode hex="0059"/>
  <outline>
    <contour>
      <point x="225" y="0" type="line"/>
      <point x="375" y="0" type="line"/>
      <point x="375" y="320" type="line"/>
      <point x="225" y="320" type="line"/>
    </contour>
    <contour>
      <point x="250" y="200" type="curve"/>
      <point x="390" y="275" type="line"/>
      <point x="240" y="375"/>
      <point x="200" y="450"/>
      <point x="200" y="600" type="curve" smooth="yes"/>
      <point x="200" y="700" type="line"/>
      <point x="50" y="700" type="line"/>
      <point x="50" y="600" type="line" smooth="yes"/>
      <point x="50" y="450"/>
      <point x="90" y="300"/>
    </contour>
    <contour>
      <point x="350" y="200" type="line"/>
      <point x="510" y="300"/>
      <point x="550" y="450"/>
      <point x="550" y="600" type="curve" smooth="yes"/>
      <point x="550" y="700" type="line"/>
      <point x="400" y="700" type="line"/>
      <point x="400" y="600" type="line" smooth="yes"/>
      <point x="400" y="450"/>
      <point x="360" y="375"/>
      <point x="210" y="275" type="curve"/>
      <point x="250" y="200" type="line"/>
    </contour>
    <contour>
      <point x="300" y="650" type="move" name="top"/>
    </contour>
  </outline>
</glyph>
<glyph name="Z" format="1">
  <advance width="600"/>
  <unicode hex="005A"/>
  <outline>
    <contour>
      <point x="550" y="0" type="line"/>
      <point x="550" y="150" type="line"/>
      <point x="350" y="150" type="line"/>
      <point x="235" y="140" type="line"/>
      <point x="550" y="560" type="line"/>
      <point x="550" y="700" type="line"/>
      <point x="50" y="700" type="line"/>
      <point x="50" y="550" type="line"/>
      <point x="250" y="550" type="line"/>
      <point x="360" y="560" type="line"/>
      <point x="50" y="140" type="line"/>
      <point x="50" y="0" type="line"/>
    </contour>
  </outline>
</glyph>
<glyph name="bracketleft" format="1">
  <advance width="200"/>
  <unicode hex="005B"/>
  <outline>
    <contour>
      <point x="50" y="700" type="line"/>
      <point x="50" y="-200" type="line"/>
      <point x="200" y="-200" type="line"/>
      <point x="200" y="-100" type="line"/>
      <point x="150" y="-100" type="line"/>
      <point x="150" y="600" type="line" smooth="yes"/>
      <point x="200" y="600" type="line"/>
      <point x="200" y="700" type="line"/>
    </contour>
  </outline>
</glyph>
<glyph name="a" format="1">
  <advance width="600"/>
  <unicode hex="0061"/>
  <outline>
    <contour>
      <point x="50" y="345" type="curve"/>
      <point x="50" y="325" type="line"/>
      <point x="200" y="325" type="line"/>
      <point x="200" y="335" type="line"/>
      <point x="200" y="360"/>
      <point x="220" y="370"/>
      <point x="300" y="370" type="curve" smooth="yes"/>
      <point x="385" y="370"/>
      <point x="400" y="365"/>
      <point x="400" y="320" type="curve" smooth="yes"/>
      <point x="400" y="220" type="line"/>
      <point x="550" y="250" type="line"/>
      <point x="550" y="330" type="line"/>
      <point x="550" y="440"/>
      <point x="480" y="510"/>
      <point x="300" y="510" type="curve" smooth="yes"/>
      <point x="110" y="510"/>
      <point x="50" y="455"/>
    </contour>
    <contour>
      <point x="550" y="250" type="line"/>
      <point x="400" y="250" type="line"/>
      <point x="400" y="80" type="line"/>
      <point x="415" y="0" type="line"/>
      <point x="550" y="0" type="line"/>
    </contour>
    <contour>
      <point x="40" y="140" type="curve"/>
      <point x="40" y="30"/>
      <point x="105" y="-10"/>
      <point x="225" y="-10" type="curve"/>
      <point x="335" y="-10"/>
      <point x="390" y="25"/>
      <point x="400" y="80" type="curve"/>
      <point x="400" y="180" type="line"/>
      <point x="400" y="155"/>
      <point x="375" y="130"/>
      <point x="260" y="130" type="curve"/>
      <point x="210" y="130"/>
      <point x="190" y="135"/>
      <point x="190" y="160" type="curve"/>
      <point x="190" y="180"/>
      <point x="200" y="200"/>
      <point x="400" y="210" type="curve"/>
      <point x="400" y="305" type="line"/>
      <point x="115" y="295"/>
      <point x="40" y="265"/>
    </contour>
    <contour>
      <point x="300.0" y="500.0" type="move" name="top"/>
    </contour>
  </outline>
</glyph>
<glyph name="b" format="1">
  <advance width="600"/>
  <unicode hex="0062"/>
  <outline>
    <contour>
      <point x="50" y="0" type="line"/>
      <point x="190" y="0" type="line"/>
      <point x="200" y="80" type="line"/>
      <point x="200" y="700" type="line"/>
      <point x="50" y="700" type="line"/>
    </contour>
    <contour>
      <point x="200" y="80" type="line"/>
      <point x="220" y="25"/>
      <point x="265" y="-10"/>
      <point x="360" y="-10" type="curve"/>
      <point x="480" y="-10"/>
      <point x="550" y="60"/>
      <point x="550" y="210" type="curve"/>
      <point x="550" y="250" type="line"/>
      <point x="400" y="250" type="line"/>
      <point x="400" y="240" type="line"/>
      <point x="400" y="170"/>
      <point x="360" y="140"/>
      <point x="300" y="140" type="curve" smooth="yes"/>
      <point x="220" y="140"/>
      <point x="200" y="170"/>
      <point x="200" y="240" type="curve"/>
    </contour>
    <contour>
      <point x="265" y="510"/>
      <point x="220" y="475"/>
      <point x="200" y="420" type="curve"/>
      <point x="200" y="260" type="line"/>
      <point x="200" y="330"/>
      <point x="220" y="360"/>
      <point x="300" y="360" type="curve" smooth="yes"/>
      <point x="360" y="360"/>
      <point x="400" y="330"/>
      <point x="400" y="260" type="curve"/>
      <point x="400" y="250" type="line"/>
      <point x="550" y="250" type="line"/>
      <point x="550" y="290" type="line"/>
      <point x="550" y="440"/>
      <point x="480" y="510"/>
      <point x="360" y="510" type="curve"/>
    </contour>
  </outline>
</glyph>
<glyph name="h" format="1">
  <advance width="600"/>
  <unicode hex="0068"/>
  <outline>
    <contour>
      <point x="50" y="0" type="line"/>
      <point x="200" y="0" type="line"/>
      <point x="200" y="700" type="line"/>
      <point x="50" y="700" type="line"/>
    </contour>
    <contour>
      <point x="200" y="420" type="curve"/>
      <point x="200" y="260" type="line"/>
      <point x="200" y="325"/>
      <point x="225" y="360"/>
      <point x="300" y="360" type="curve" smooth="yes"/>
      <point x="370" y="360"/>
      <point x="400" y="330"/>
      <point x="400" y="260" type="curve"/>
      <point x="400" y="0" type="line"/>
      <point x="550" y="0" type="line"/>
      <point x="550" y="290" type="line"/>
      <point x="550" y="450"/>
      <point x="490" y="510"/>
      <point x="360" y="510" type="curve"/>
      <point x="265" y="510"/>
      <point x="210" y="475"/>
    </contour>
    <contour>
      <point x="300" y="500" type="move" name="top"/>
    </contour>
  </outline>
</glyph>
<glyph name="l" format="1">
  <advance width="250"/>
  <unicode hex="006C"/>
  <outline>
    <contour>
      <point x="50" y="0" type="line"/>
      <point x="200" y="0" type="line"/>
      <point x="200" y="700" type="line"/>
      <point x="50" y="700" type="line"/>
    </contour>
  </outline>
</glyph>
<glyph name="n" format="1">
  <advance width="600"/>
  <unicode hex="006E"/>
  <outline>
    <contour>
      <point x="50" y="0" type="line"/>
      <point x="200" y="0" type="line"/>
      <point x="200" y="420" type="line"/>
      <point x="190" y="500" type="line"/>
      <point x="50" y="500" type="line"/>
    </contour>
    <contour>
      <point x="200" y="420" type="curve"/>
      <point x="200" y="260" type="line"/>
      <point x="200" y="325"/>
      <point x="225" y="360"/>
      <point x="300" y="360" type="curve" smooth="yes"/>
      <point x="370" y="360"/>
      <point x="400" y="330"/>
      <point x="400" y="260" type="curve"/>
      <point x="400" y="0" type="line"/>
      <point x="550" y="0" type="line"/>
      <point x="550" y="290" type="line"/>
      <point x="550" y="450"/>
      <point x="490" y="510"/>
      <point x="360" y="510" type="curve"/>
      <point x="265" y="510"/>
      <point x="210" y="475"/>
    </contour>
    <contour>
      <point x="300.0" y="500.0" type="move" name="top"/>
    </contour>
  </outline>
</glyph>
<glyph name="o" format="1">
  <advance width="600"/>
  <unicode hex="006F"/>
  <outline>
    <contour>
      <point x="300" y="-10" type="curve"/>
      <point x="480" y="-10"/>
      <point x="550" y="75"/>
      <point x="550" y="220" type="curve"/>
      <point x="550" y="250" type="line"/>
      <point x="400" y="250" type="line"/>
      <point x="400" y="240" type="line" smooth="yes"/>
      <point x="400" y="160"/>
      <point x="380" y="140"/>
      <point x="300" y="140" type="curve"/>
      <point x="220" y="140"/>
      <point x="200" y="160"/>
      <point x="200" y="240" type="curve" smooth="yes"/>
      <point x="200" y="250" type="line"/>
      <point x="50" y="250" type="line"/>
      <point x="50" y="220" type="line"/>
      <point x="50" y="75"/>
      <point x="120" y="-10"/>
    </contour>
    <contour>
      <point x="300" y="510" type="curve"/>
      <point x="120" y="510"/>
      <point x="50" y="425"/>
      <point x="50" y="280" type="curve"/>
      <point x="50" y="250" type="line"/>
      <point x="200" y="250" type="line"/>
      <point x="200" y="260" type="line" smooth="yes"/>
      <point x="200" y="340"/>
      <point x="220" y="360"/>
      <point x="300" y="360" type="curve"/>
      <point x="380" y="360"/>
      <point x="400" y="340"/>
      <point x="400" y="260" type="curve" smooth="yes"/>
      <point x="400" y="250" type="line"/>
      <point x="550" y="250" type="line"/>
      <point x="550" y="280" type="line"/>
      <point x="550" y="425"/>
      <point x="480" y="510"/>
    </contour>
    <contour>
      <point x="300.0" y="500.0" type="move" name="top"/>
    </contour>
  </outline>
</glyph>
<glyph name="s" format="1">
  <advance width="600"/>
  <unicode hex="0073"/>
  <outline>
    <contour>
      <point x="300" y="195" type="curve"/>
      <point x="400" y="190"/>
      <point x="410" y="185"/>
      <point x="410" y="165" type="curve" smooth="yes"/>
      <point x="410" y="145"/>
      <point x="390" y="140"/>
      <point x="300" y="140" type="curve" smooth="yes"/>
      <point x="220" y="140"/>
      <point x="200" y="145"/>
      <point x="200" y="160" type="curve"/>
      <point x="200" y="175" type="line"/>
      <point x="50" y="175" type="line"/>
      <point x="50" y="130" type="line"/>
      <point x="50" y="40"/>
      <point x="110" y="-10"/>
      <point x="300" y="-10" type="curve" smooth="yes"/>
      <point x="480" y="-10"/>
      <point x="560" y="50"/>
      <point x="560" y="150" type="curve"/>
      <point x="560" y="255"/>
      <point x="500" y="295"/>
      <point x="300" y="305" type="curve"/>
      <point x="200" y="310"/>
      <point x="190" y="315"/>
      <point x="190" y="335" type="curve" smooth="yes"/>
      <point x="190" y="355"/>
      <point x="210" y="360"/>
      <point x="300" y="360" type="curve" smooth="yes"/>
      <point x="380" y="360"/>
      <point x="400" y="355"/>
      <point x="400" y="340" type="curve"/>
      <point x="400" y="325" type="line"/>
      <point x="550" y="325" type="line"/>
      <point x="550" y="370" type="line"/>
      <point x="550" y="460"/>
      <point x="490" y="510"/>
      <point x="300" y="510" type="curve" smooth="yes"/>
      <point x="120" y="510"/>
      <point x="40" y="450"/>
      <point x="40" y="350" type="curve"/>
      <point x="40" y="245"/>
      <point x="100" y="205"/>
    </contour>
  </outline>
</glyph>
<glyph name="u" format="1">
  <advance width="600"/>
  <unicode hex="0075"/>
  <outline>
    <contour>
      <point x="550" y="500" type="line"/>
      <point x="400" y="500" type="line"/>
      <point x="400" y="80" type="line"/>
      <point x="410" y="0" type="line"/>
      <point x="550" y="0" type="line"/>
    </contour>
    <contour>
      <point x="400" y="80" type="curve"/>
      <point x="400" y="240" type="line"/>
      <point x="400" y="175"/>
      <point x="375" y="140"/>
      <point x="300" y="140" type="curve" smooth="yes"/>
      <point x="230" y="140"/>
      <point x="200" y="170"/>
      <point x="200" y="240" type="curve"/>
      <point x="200" y="500" type="line"/>
      <point x="50" y="500" type="line"/>
      <point x="50" y="210" type="line"/>
      <point x="50" y="50"/>
      <point x="110" y="-10"/>
      <point x="240" y="-10" type="curve"/>
      <point x="335" y="-10"/>
      <point x="390" y="25"/>
    </contour>
    <contour>
      <point x="300.0" y="500.0" type="move" name="top"/>
    </contour>
  </outline>
</glyph>
<glyph name="x" format="1">
  <advance width="600"/>
  <unicode hex="0078"/>
  <outline>
    <contour>
      <point x="280" y="205" type="curve"/>
      <point x="370" y="285" type="line"/>
      <point x="210" y="345"/>
      <point x="200" y="380"/>
      <point x="200" y="450" type="curve" smooth="yes"/>
      <point x="200" y="500" type="line"/>
      <point x="50" y="500" type="line"/>
      <point x="50" y="450" type="line" smooth="yes"/>
      <point x="50" y="350"/>
      <point x="110" y="255"/>
    </contour>
    <contour>
      <point x="320" y="205" type="line"/>
      <point x="490" y="255"/>
      <point x="550" y="350"/>
      <point x="550" y="450" type="curve" smooth="yes"/>
      <point x="550" y="500" type="line"/>
      <point x="400" y="500" type="line"/>
      <point x="400" y="450" type="line" smooth="yes"/>
      <point x="400" y="380"/>
      <point x="390" y="345"/>
      <point x="230" y="285" type="curve"/>
      <point x="310" y="240" type="line"/>
    </contour>
    <contour>
      <point x="280" y="305" type="line"/>
      <point x="110" y="255"/>
      <point x="50" y="150"/>
      <point x="50" y="50" type="curve" smooth="yes"/>
      <point x="50" y="0" type="line"/>
      <point x="200" y="0" type="line"/>
      <point x="200" y="50" type="line" smooth="yes"/>
      <point x="200" y="120"/>
      <point x="210" y="165"/>
      <point x="370" y="225" type="curve"/>
    </contour>
    <contour>
      <point x="320" y="305" type="curve"/>
      <point x="220" y="250" type="line"/>
      <point x="230" y="225" type="line"/>
      <point x="390" y="165"/>
      <point x="400" y="120"/>
      <point x="400" y="50" type="curve" smooth="yes"/>
      <point x="400" y="0" type="line"/>
      <point x="550" y="0" type="line"/>
      <point x="550" y="50" type="line" smooth="yes"/>
      <point x="550" y="150"/>
      <point x="490" y="255"/>
    </contour>
  </outline>
</glyph>
<glyph name="braceleft" format="1">
  <advance width="200"/>
  <unicode hex="007B"/>
  <outline>
    <contour>
      <point x="50.0" y="560.0" type="curve"/>
      <point x="50.0" y="350.0" type="line"/>
      <point x="50" y="310"/>
      <point x="40" y="300"/>
      <point x="0" y="290" type="curve"/>
      <point x="0" y="210" type="line"/>
      <point x="40" y="200"/>
      <point x="50" y="190"/>
      <point x="50.0" y="150.0" type="curve" smooth="yes"/>
      <point x="50.0" y="-60.0" type="line"/>
      <point x="50" y="-150"/>
      <point x="120" y="-200"/>
      <point x="200" y="-200" type="curve"/>
      <point x="200.0" y="-110.0" type="line"/>
      <point x="170.0" y="-110.0"/>
      <point x="150" y="-100"/>
      <point x="150.0" y="-60.0" type="curve" smooth="yes"/>
      <point x="150" y="150" type="line"/>
      <point x="150" y="210"/>
      <point x="130" y="240"/>
      <point x="100" y="250" type="curve"/>
      <point x="130" y="260"/>
      <point x="150" y="290"/>
      <point x="150" y="350" type="curve"/>
      <point x="150.0" y="560.0" type="line" smooth="yes"/>
      <point x="150" y="600"/>
      <point x="170.0" y="610.0"/>
      <point x="200.0" y="610.0" type="curve"/>
      <point x="200" y="700" type="line"/>
      <point x="120" y="700"/>
      <point x="50.0" y="650.0"/>
    </contour>
  </outline>
</glyph>
<glyph name="yen" format="1">
  <advance width="600"/>
  <unicode hex="00A5"/>
  <outline>
    <contour>
      <point x="250" y="0" type="line"/>
      <point x="350" y="0" type="line"/>
      <point x="350" y="350" type="line"/>
      <point x="250" y="350" type="line"/>
    </contour>
    <contour>
      <point x="50" y="200" type="line"/>
      <point x="550" y="200" type="line"/>
      <point x="550" y="300" type="line"/>
      <point x="430" y="300" type="line"/>
      <point x="350" y="280" type="line"/>
      <point x="260" y="280" type="line"/>
      <point x="170" y="300" type="line"/>
      <point x="50" y="300" type="line"/>
    </contour>
    <contour>
      <point x="550" y="400" type="line"/>
      <point x="550" y="500" type="line"/>
      <point x="535" y="500" type="line"/>
      <point x="520" y="495" type="line"/>
      <point x="515" y="500" type="line"/>
      <point x="540" y="540"/>
      <point x="550" y="605"/>
      <point x="550" y="650" type="curve" smooth="yes"/>
      <point x="550" y="700" type="line"/>
      <point x="450" y="700" type="line"/>
      <point x="450" y="650" type="line" smooth="yes"/>
      <point x="450" y="530"/>
      <point x="410" y="430"/>
      <point x="260" y="330" type="curve"/>
      <point x="350" y="290" type="line"/>
      <point x="405" y="320"/>
      <point x="445" y="360"/>
      <point x="475" y="400" type="curve"/>
    </contour>
    <contour>
      <point x="50" y="500" type="line"/>
      <point x="50" y="400" type="line"/>
      <point x="125" y="400" type="line"/>
      <point x="155" y="360"/>
      <point x="195" y="320"/>
      <point x="250" y="290" type="curve"/>
      <point x="340" y="330" type="line"/>
      <point x="190" y="430"/>
      <point x="150" y="530"/>
      <point x="150" y="650" type="curve" smooth="yes"/>
      <point x="150" y="700" type="line"/>
      <point x="50" y="700" type="line"/>
      <point x="50" y="650" type="line" smooth="yes"/>
      <point x="50" y="605"/>
      <point x="60" y="540"/>
      <point x="85" y="500" type="curve"/>
      <point x="80" y="495" type="line"/>
      <point x="65" y="500" type="line"/>
    </contour>
    <contour>
      <point x="300.0" y="650.0" type="move" name="top"/>
    </contour>
  </outline>
</glyph>
<glyph name="guillemotleft" format="1">
  <advance width="500"/>
  <unicode hex="00AB"/>
  <outline>
    <contour>
      <point x="20" y="250" type="line"/>
      <point x="160" y="250" type="line"/>
      <point x="260" y="400" type="line"/>
      <point x="120" y="400" type="line"/>
    </contour>
    <contour>
      <point x="20" y="250" type="line"/>
      <point x="120" y="100" type="line"/>
      <point x="260" y="100" type="line"/>
      <point x="160" y="250" type="line"/>
    </contour>
    <contour>
      <point x="220" y="250" type="line"/>
      <point x="360" y="250" type="line"/>
      <point x="460" y="400" type="line"/>
      <point x="320" y="400" type="line"/>
    </contour>
    <contour>
      <point x="220" y="250" type="line"/>
      <point x="320" y="100" type="line"/>
      <point x="460" y="100" type="line"/>
      <point x="360" y="250" type="line"/>
    </contour>
  </outline>
</glyph>
<glyph name="cedilla" format="1">
  <advance width="250"/>
  <unicode hex="00B8"/>
  <outline>
    <contour>
      <point x="90" y="0" type="line"/>
      <point x="80" y="-75" type="line"/>
      <point x="125" y="-75"/>
      <point x="135" y="-80"/>
      <point x="135" y="-90" type="curve"/>
      <point x="135" y="-105"/>
      <point x="125" y="-110"/>
      <point x="100" y="-110" type="curve"/>
      <point x="50" y="-110" type="line"/>
      <point x="40" y="-200" type="line"/>
      <point x="100" y="-200" type="line"/>
      <point x="180" y="-200"/>
      <point x="230" y="-170"/>
      <point x="230" y="-100" type="curve" smooth="yes"/>
      <point x="230" y="-50"/>
      <point x="205" y="-25"/>
      <point x="160" y="-25" type="curve"/>
      <point x="160" y="0" type="line"/>
    </contour>
    <contour>
      <point x="123.0" y="0.0" type="move" name="_bottom"/>
    </contour>
  </outline>
</glyph>
<glyph name="ae" format="1">
  <advance width="1000"/>
  <unicode hex="00E6"/>
  <outline>
    <contour>
      <point x="550" y="310" type="line" smooth="yes"/>
      <point x="550" y="390"/>
      <point x="570" y="410"/>
      <point x="700" y="410" type="curve" smooth="yes"/>
      <point x="830" y="410"/>
      <point x="850" y="390"/>
      <point x="850" y="310" type="curve"/>
      <point x="850" y="300" type="line"/>
      <point x="550" y="300" type="line"/>
    </contour>
    <contour>
      <point x="950" y="130" type="curve"/>
      <point x="950" y="150" type="line"/>
      <point x="850" y="150" type="line"/>
      <point x="850" y="130" type="line"/>
      <point x="850" y="100"/>
      <point x="830" y="90"/>
      <point x="700" y="90" type="curve" smooth="yes"/>
      <point x="570" y="90"/>
      <point x="550" y="110"/>
      <point x="550" y="190" type="curve" smooth="yes"/>
      <point x="550" y="200" type="line"/>
      <point x="950" y="200" type="line"/>
      <point x="950" y="310" type="line"/>
      <point x="950" y="440"/>
      <point x="880" y="510"/>
      <point x="700" y="510" type="curve" smooth="yes"/>
      <point x="610" y="510"/>
      <point x="530" y="490"/>
      <point x="500" y="440" type="curve"/>
      <point x="470" y="490"/>
      <point x="400" y="510"/>
      <point x="300" y="510" type="curve" smooth="yes"/>
      <point x="110" y="510"/>
      <point x="50" y="450"/>
      <point x="50" y="350" type="curve"/>
      <point x="50" y="330" type="line"/>
      <point x="150" y="330" type="line"/>
      <point x="150" y="350" type="line"/>
      <point x="150" y="400"/>
      <point x="170" y="410"/>
      <point x="300" y="410" type="curve" smooth="yes"/>
      <point x="430" y="410"/>
      <point x="450" y="390"/>
      <point x="450" y="330" type="curve" smooth="yes"/>
      <point x="450" y="300" type="line"/>
      <point x="130" y="290"/>
      <point x="40" y="260"/>
      <point x="40" y="140" type="curve"/>
      <point x="40" y="30"/>
      <point x="110" y="-10"/>
      <point x="280" y="-10" type="curve"/>
      <point x="390" y="-10"/>
      <point x="470" y="20"/>
      <point x="500" y="70" type="curve"/>
      <point x="530" y="20"/>
      <point x="600" y="-10"/>
      <point x="700" y="-10" type="curve" smooth="yes"/>
      <point x="890" y="-10"/>
      <point x="950" y="40"/>
    </contour>
    <contour>
      <point x="280" y="90" type="curve"/>
      <point x="160" y="90"/>
      <point x="140" y="100"/>
      <point x="140" y="140" type="curve"/>
      <point x="140" y="190"/>
      <point x="190" y="200"/>
      <point x="450" y="210" type="curve"/>
      <point x="450" y="190" type="line"/>
      <point x="450" y="110"/>
      <point x="430" y="90"/>
    </contour>
    <contour>
      <point x="300.0" y="500.0" type="move" name="top"/>
    </contour>
    <contour>
      <point x="700.0" y="500.0" type="move" name="top"/>
    </contour>
  </outline>
</glyph>
<glyph name="circumflex" format="1">
  <advance width="200"/>
  <unicode hex="02C6"/>
  <outline>
    <contour>
      <point x="-25" y="550" type="line"/>
      <point x="70" y="550" type="line"/>
      <point x="110" y="640" type="line"/>
      <point x="110" y="700" type="line"/>
      <point x="55" y="700" type="line"/>
      <point x="-25" y="610" type="line"/>
    </contour>
    <contour>
      <point x="225" y="550" type="line"/>
      <point x="225" y="610" type="line"/>
      <point x="145" y="700" type="line"/>
      <point x="90" y="700" type="line"/>
      <point x="90" y="640" type="line"/>
      <point x="130" y="550" type="line"/>
    </contour>
    <contour>
      <point x="100.0" y="500.0" type="move" name="_top"/>
    </contour>
  </outline>
</glyph>
<glyph name="tilde" format="1">
  <advance width="200"/>
  <unicode hex="02DC"/>
  <outline>
    <contour>
      <point x="-50" y="560" type="line"/>
      <point x="-50" y="612" type="line" smooth="yes"/>
      <point x="-50" y="673"/>
      <point x="-25" y="700"/>
      <point x="17" y="700" type="curve"/>
      <point x="59" y="700"/>
      <point x="129" y="647"/>
      <point x="155" y="647" type="curve" smooth="yes"/>
      <point x="170" y="647"/>
      <point x="175" y="656"/>
      <point x="175" y="672" type="curve" smooth="yes"/>
      <point x="175" y="700" type="line"/>
      <point x="175" y="700"/>
      <point x="250" y="700"/>
      <point x="250" y="700" type="curve"/>
      <point x="250" y="635" type="line" smooth="yes"/>
      <point x="250" y="596"/>
      <point x="222" y="561"/>
      <point x="180" y="561" type="curve"/>
      <point x="140" y="561"/>
      <point x="68" y="615"/>
      <point x="46" y="615" type="curve"/>
      <point x="33" y="615"/>
      <point x="28" y="608"/>
      <point x="28" y="590" type="curve" smooth="yes"/>
      <point x="28" y="560" type="line"/>
    </contour>
    <contour>
      <point x="100.0" y="500.0" type="move" name="_top"/>
    </contour>
  </outline>
</glyph>
<glyph name="bullet" format="1">
  <advance width="202"/>
  <unicode hex="2022"/>
  <outline>
    <contour>
      <point x="202" y="200" type="line"/>
      <point x="202" y="300" type="line"/>
      <point x="180" y="300" type="line" smooth="yes"/>
      <point x="161.0" y="300.0"/>
      <point x="150" y="289"/>
      <point x="134" y="273" type="curve"/>
      <point x="123" y="284" type="line"/>
      <point x="139" y="300"/>
      <point x="150.0" y="311.0"/>
      <point x="150" y="330" type="curve" smooth="yes"/>
      <point x="150" y="350" type="line"/>
      <point x="50" y="350" type="line"/>
      <point x="50" y="330" type="line" smooth="yes"/>
      <point x="50.0" y="311.0"/>
      <point x="61" y="300"/>
      <point x="77" y="284" type="curve"/>
      <point x="66" y="273" type="line"/>
      <point x="50" y="289"/>
      <point x="39.0" y="300.0"/>
      <point x="20" y="300" type="curve" smooth="yes"/>
      <point x="0" y="300" type="line"/>
      <point x="0" y="200" type="line"/>
      <point x="20" y="200" type="line" smooth="yes"/>
      <point x="39.0" y="200.0"/>
      <point x="50" y="211"/>
      <point x="66" y="227" type="curve"/>
      <point x="77" y="216" type="line"/>
      <point x="61" y="200"/>
      <point x="50.0" y="189.0"/>
      <point x="50" y="170" type="curve" smooth="yes"/>
      <point x="50" y="150" type="line"/>
      <point x="150" y="150" type="line"/>
      <point x="150" y="170" type="line" smooth="yes"/>
      <point x="150.0" y="189.0"/>
      <point x="139" y="200"/>
      <point x="123" y="216" type="curve"/>
      <point x="134" y="227" type="line"/>
      <point x="150" y="211"/>
      <point x="161.0" y="200.0"/>
      <point x="180" y="200" type="curve" smooth="yes"/>
    </contour>
  </outline>
</glyph>
<glyph name="VTF" format="1">
  <advance width="1400"/>
  <outline>
    <contour>
      <point x="650" y="250" type="line"/>
      <point x="655" y="225"/>
      <point x="680" y="190"/>
      <point x="700" y="175" type="curve"/>
      <point x="720" y="190"/>
      <point x="745" y="225"/>
      <point x="750" y="250" type="curve"/>
      <point x="750" y="700" type="line"/>
      <point x="650" y="700" type="line"/>
    </contour>
    <contour>
      <point x="450" y="600" type="line"/>
      <point x="950" y="600" type="line"/>
      <point x="950" y="700" type="line"/>
      <point x="450" y="700" type="line"/>
    </contour>
    <contour>
      <point x="650" y="0" type="curve"/>
      <point x="740" y="50" type="line"/>
      <point x="590" y="150"/>
      <point x="550" y="250"/>
      <point x="550" y="400" type="curve" smooth="yes"/>
      <point x="550" y="500" type="line"/>
      <point x="450" y="500" type="line"/>
      <point x="450" y="400" type="line" smooth="yes"/>
      <point x="450" y="250"/>
      <point x="490" y="100"/>
    </contour>
    <contour>
      <point x="750" y="0" type="line"/>
      <point x="910" y="100"/>
      <point x="950" y="250"/>
      <point x="950" y="400" type="curve" smooth="yes"/>
      <point x="950" y="500" type="line"/>
      <point x="850" y="500" type="line"/>
      <point x="850" y="400" type="line" smooth="yes"/>
      <point x="850" y="250"/>
      <point x="810" y="150"/>
      <point x="660" y="50" type="curve"/>
      <point x="650" y="0" type="line"/>
    </contour>
    <contour>
      <point x="1050" y="400" type="line"/>
      <point x="1150" y="400" type="line"/>
      <point x="1150" y="700" type="line"/>
      <point x="1050" y="700" type="line"/>
    </contour>
    <contour>
      <point x="1100" y="600" type="line"/>
      <point x="1350" y="600" type="line"/>
      <point x="1350" y="700" type="line"/>
      <point x="1100" y="700" type="line"/>
    </contour>
    <contour>
      <point x="900" y="400" type="line"/>
      <point x="1300" y="400" type="line"/>
      <point x="1300" y="500" type="line"/>
      <point x="900" y="500" type="line"/>
    </contour>
    <contour>
      <point x="1050" y="500" type="line"/>
      <point x="1050" y="400" type="line" smooth="yes"/>
      <point x="1050" y="250"/>
      <point x="1020" y="120"/>
      <point x="900" y="20" type="curve"/>
      <point x="900" y="0" type="line"/>
      <point x="1005" y="0" type="line"/>
      <point x="1120" y="100"/>
      <point x="1150" y="250"/>
      <point x="1150" y="400" type="curve" smooth="yes"/>
      <point x="1150" y="500" type="line"/>
    </contour>
    <contour>
      <point x="350" y="400" type="line"/>
      <point x="350" y="700" type="line"/>
      <point x="250" y="700" type="line"/>
      <point x="250" y="400" type="line"/>
    </contour>
    <contour>
      <point x="300" y="600" type="line"/>
      <point x="300" y="700" type="line"/>
      <point x="50" y="700" type="line"/>
      <point x="50" y="600" type="line"/>
    </contour>
    <contour>
      <point x="500" y="400" type="line"/>
      <point x="500" y="500" type="line"/>
      <point x="100" y="500" type="line"/>
      <point x="100" y="400" type="line"/>
    </contour>
    <contour>
      <point x="350" y="500" type="line"/>
      <point x="250" y="500" type="line"/>
      <point x="250" y="400" type="line" smooth="yes"/>
      <point x="250" y="250"/>
      <point x="280" y="100"/>
      <point x="395" y="0" type="curve"/>
      <point x="500" y="0" type="line"/>
      <point x="500" y="20" type="line"/>
      <point x="380" y="120"/>
      <point x="350" y="250"/>
      <point x="350" y="400" type="curve" smooth="yes"/>
    </contour>
  </outline>
</glyph>
<glyph name="nine.sup" format="1">
  <advance width="400"/>
  <outline>
    <contour>
      <point x="200" y="710" type="curve"/>
      <point x="110" y="710"/>
      <point x="60" y="685"/>
      <point x="60" y="615" type="curve"/>
      <point x="60" y="495"/>
      <point x="190" y="535"/>
      <point x="270" y="520" type="curve"/>
      <point x="270" y="580" type="line"/>
      <point x="240" y="590"/>
      <point x="150" y="575"/>
      <point x="150" y="610" type="curve"/>
      <point x="150" y="630"/>
      <point x="170" y="630"/>
      <point x="200" y="630" type="curve"/>
      <point x="245" y="630"/>
      <point x="270" y="625"/>
      <point x="270" y="595" type="curve" smooth="yes"/>
      <point x="270" y="520" type="line" smooth="yes"/>
      <point x="270" y="480"/>
      <point x="240" y="480"/>
      <point x="210" y="480" type="curve" smooth="yes"/>
      <point x="180" y="480"/>
      <point x="150" y="480"/>
      <point x="150" y="510" type="curve"/>
      <point x="60" y="510" type="line"/>
      <point x="60" y="430"/>
      <point x="120" y="390"/>
      <point x="210" y="390" type="curve" smooth="yes"/>
      <point x="290" y="390"/>
      <point x="360" y="430"/>
      <point x="360" y="520" type="curve"/>
      <point x="360" y="595" type="line"/>
      <point x="360" y="680"/>
      <point x="300" y="710"/>
    </contour>
  </outline>
</glyph>
<glyph name="one.LT" format="1">
  <advance width="600"/>
  <outline>
    <contour>
      <point x="550" y="150" type="line"/>
      <point x="50" y="150" type="line"/>
      <point x="50" y="0" type="line"/>
      <point x="550" y="0" type="line"/>
    </contour>
    <contour>
      <point x="50" y="375" type="line"/>
      <point x="235" y="510" type="line"/>
      <point x="225" y="400" type="line"/>
      <point x="225" y="50" type="line"/>
      <point x="375" y="50" type="line"/>
      <point x="375" y="700" type="line"/>
      <point x="235" y="700" type="line"/>
      <point x="50" y="560" type="line"/>
    </contour>
  </outline>
</glyph>
<glyph name="one.sup" format="1">
  <advance width="200"/>
  <outline>
    <contour>
      <point x="50" y="400" type="line"/>
      <point x="140" y="400" type="line"/>
      <point x="140" y="700" type="line"/>
      <point x="50" y="700" type="line"/>
    </contour>
    <contour>
      <point x="90" y="700" type="line"/>
      <point x="20" y="700" type="line"/>
      <point x="0" y="610" type="line"/>
      <point x="100" y="610" type="line"/>
    </contour>
  </outline>
</glyph>
<glyph name="white_large_square" format="1">
  <advance width="1000"/>
  <outline>
    <contour>
      <point x="100" y="-150" type="line"/>
      <point x="100" y="650" type="line"/>
      <point x="900" y="650" type="line"/>
      <point x="900" y="-150" type="line"/>
    </contour>
    <contour>
      <point x="50" y="-200" type="line"/>
      <point x="950" y="-200" type="line"/>
      <point x="950" y="700" type="line"/>
      <point x="50" y="700" type="line"/>
    </contour>
  </outline>
</glyph>
